<svg viewBox="0 0 1478 278" width="210" fill="none" xmlns="http://www.w3.org/2000/svg">
    <path
        d="M938.18 7H919.82C919.505 7 919.25 7.25521 919.25 7.57001V163.93C919.25 164.245 919.505 164.5 919.82 164.5H938.18C938.495 164.5 938.75 164.245 938.75 163.93V7.57001C938.75 7.25521 938.495 7 938.18 7Z"
        fill="white" />
    <path
        d="M824.84 147.71C846.57 147.26 864.42 136.31 872.62 115.84C872.773 115.447 873.06 115.25 873.48 115.25H892.98C893.307 115.25 893.427 115.407 893.34 115.72C883.36 150.52 855.12 166.8 820.27 165.73C768.55 164.13 743.98 115.47 754.2 69.22C763.73 26.1 801.72 5.87001 843.78 15.17C868.66 20.68 886.51 39.11 893.48 63.35C893.492 63.3973 893.493 63.4468 893.484 63.4946C893.474 63.5425 893.453 63.5874 893.423 63.626C893.393 63.6647 893.355 63.6959 893.311 63.7174C893.267 63.7389 893.219 63.75 893.17 63.75H873.72C873.46 63.7499 873.206 63.6728 872.99 63.5285C872.775 63.3842 872.607 63.1794 872.51 62.94C865.83 46.09 851.95 35.13 834.25 32.08C755.57 18.49 750.5 149.25 824.84 147.71Z"
        fill="white" />
    <path
        d="M441.36 164.5H421.17C421.097 164.5 421.025 164.482 420.961 164.448C420.897 164.414 420.841 164.365 420.8 164.305C420.759 164.245 420.733 164.176 420.724 164.104C420.715 164.031 420.724 163.958 420.75 163.89L475.95 17.54C475.982 17.4548 476.04 17.3815 476.115 17.3297C476.19 17.2779 476.279 17.2501 476.37 17.25H497.83C497.921 17.2501 498.01 17.2779 498.085 17.3297C498.16 17.3815 498.218 17.4548 498.25 17.54L553.23 163.89C553.256 163.958 553.265 164.031 553.256 164.104C553.247 164.176 553.221 164.245 553.18 164.305C553.139 164.365 553.083 164.414 553.019 164.448C552.955 164.482 552.883 164.5 552.81 164.5H532.61C532.516 164.501 532.424 164.473 532.347 164.419C532.27 164.365 532.211 164.289 532.18 164.2L519.92 130.3C519.889 130.211 519.83 130.135 519.753 130.081C519.676 130.027 519.584 129.999 519.49 130H454.49C454.396 129.999 454.304 130.027 454.227 130.081C454.15 130.135 454.091 130.211 454.06 130.3L441.79 164.2C441.759 164.289 441.7 164.365 441.623 164.419C441.546 164.473 441.454 164.501 441.36 164.5ZM460 114.06C459.982 114.11 459.977 114.163 459.984 114.215C459.991 114.267 460.011 114.317 460.041 114.36C460.072 114.403 460.112 114.438 460.159 114.463C460.205 114.487 460.257 114.5 460.31 114.5H513.67C513.723 114.5 513.775 114.487 513.821 114.463C513.868 114.438 513.908 114.403 513.939 114.36C513.969 114.317 513.989 114.267 513.996 114.215C514.003 114.163 513.998 114.11 513.98 114.06L487.3 40.45C487.277 40.3864 487.235 40.3315 487.179 40.2927C487.124 40.2539 487.058 40.2331 486.99 40.2331C486.922 40.2331 486.856 40.2539 486.801 40.2927C486.745 40.3315 486.703 40.3864 486.68 40.45L460 114.06Z"
        fill="white" />
    <path
        d="M642.9 69.88C652.147 53.72 666.293 45.71 685.34 45.85C685.613 45.85 685.75 45.99 685.75 46.27V66.27C685.75 66.3842 685.727 66.4973 685.682 66.6021C685.636 66.7069 685.57 66.8013 685.486 66.8792C685.403 66.9571 685.304 67.0169 685.196 67.0549C685.088 67.0929 684.974 67.1083 684.86 67.1C659.91 65.47 642.71 76.45 642.58 103.06C642.487 123.407 642.467 143.767 642.52 164.14C642.52 164.235 642.482 164.327 642.415 164.395C642.347 164.462 642.255 164.5 642.16 164.5H623.63C623.21 164.5 623 164.29 623 163.87V48.16C623 48.0513 623.042 47.947 623.117 47.8701C623.192 47.7932 623.294 47.75 623.4 47.75H642.01C642.35 47.75 642.52 47.92 642.52 48.26L642.46 69.76C642.46 70.36 642.607 70.4 642.9 69.88Z"
        fill="white" />
    <path
        d="M1265.7 72.57C1273.19 52.85 1292.77 43.61 1313.23 46.1C1339.42 49.29 1351.96 69.22 1352.21 94.32C1352.44 117.567 1352.54 140.84 1352.52 164.14C1352.52 164.235 1352.48 164.327 1352.41 164.395C1352.35 164.462 1352.26 164.5 1352.16 164.5H1333.3C1332.95 164.5 1332.77 164.327 1332.77 163.98C1332.72 141.207 1332.72 118.467 1332.77 95.76C1332.8 78.31 1321.98 64.29 1304.06 62.71C1278.71 60.47 1265.06 77.29 1265.02 101.28C1264.99 122.22 1264.98 143.173 1265.01 164.14C1265.01 164.235 1264.97 164.327 1264.91 164.395C1264.84 164.462 1264.75 164.5 1264.66 164.5H1245.88C1245.46 164.5 1245.25 164.29 1245.25 163.87V48.16C1245.25 48.0513 1245.29 47.947 1245.37 47.8701C1245.44 47.7932 1245.54 47.75 1245.65 47.75H1264.5C1264.83 47.75 1265 47.9167 1265 48.25V72.44C1265 72.5261 1265.03 72.6105 1265.08 72.6777C1265.13 72.7449 1265.21 72.7905 1265.29 72.8062C1265.38 72.822 1265.47 72.8068 1265.54 72.7634C1265.62 72.7201 1265.67 72.6515 1265.7 72.57Z"
        fill="white" />
    <path
        d="M983.26 111.13C983.073 120.11 985.2 127.937 989.64 134.61C1005.54 158.52 1048.76 154.71 1055.27 124.6C1055.36 124.2 1055.6 124 1056.01 124H1075.7C1076.11 124 1076.27 124.2 1076.19 124.6C1069.3 157.63 1036.93 171.4 1006.33 164.4C974.55 157.13 960.65 127.85 964.29 97.15C968.53 61.36 997.11 41.21 1032.78 47.26C1063.82 52.54 1081.46 79.43 1076.11 109.99C1076.05 110.33 1075.85 110.5 1075.5 110.5H983.9C983.48 110.5 983.267 110.71 983.26 111.13ZM1057.11 100.18C1060.64 50.11 984.48 48.69 983.05 100.31C983.049 100.369 983.059 100.427 983.08 100.481C983.101 100.536 983.132 100.586 983.172 100.628C983.212 100.67 983.26 100.703 983.313 100.726C983.366 100.748 983.423 100.76 983.48 100.76L1056.5 100.75C1056.88 100.75 1057.08 100.56 1057.11 100.18Z"
        fill="white" />
    <path
        d="M1195.27 136.74C1195.27 136.678 1195.25 136.617 1195.21 136.569C1195.17 136.521 1195.11 136.489 1195.05 136.477C1194.99 136.465 1194.93 136.475 1194.87 136.505C1194.82 136.534 1194.77 136.582 1194.75 136.64C1188.25 153.62 1174.84 163.35 1157.06 165.64C1130.31 169.1 1106.51 153.94 1099.25 127.76C1091.24 98.89 1099.04 61.26 1130.3 49.57C1155.59 40.11 1184.49 49.35 1194.77 75.59C1194.79 75.6425 1194.83 75.6857 1194.88 75.7126C1194.93 75.7396 1194.99 75.7485 1195.05 75.738C1195.1 75.7275 1195.15 75.6982 1195.19 75.6549C1195.23 75.6116 1195.25 75.557 1195.25 75.5V48.5C1195.25 48 1195.5 47.75 1196 47.75H1214.13C1214.54 47.75 1214.75 47.96 1214.75 48.38V164C1214.75 164.133 1214.7 164.26 1214.6 164.354C1214.51 164.447 1214.38 164.5 1214.25 164.5H1196C1195.8 164.5 1195.61 164.42 1195.46 164.277C1195.32 164.135 1195.24 163.942 1195.24 163.74L1195.27 136.74ZM1173.74 144.57C1191.96 135.39 1197.93 114.51 1194.04 95.51C1190.25 76.98 1177.07 65.17 1158.58 63.72C1123.06 60.93 1109.24 96.62 1119.45 125.01C1127.34 146.95 1153.81 154.62 1173.74 144.57Z"
        fill="white" />
    <path
        d="M591.65 47.75H573.35C573.019 47.75 572.75 48.0186 572.75 48.35V163.91C572.75 164.241 573.019 164.51 573.35 164.51H591.65C591.981 164.51 592.25 164.241 592.25 163.91V48.35C592.25 48.0186 591.981 47.75 591.65 47.75Z"
        fill="white" />
    <path
        d="M1451.26 155.73C1465.27 160.16 1472.17 144.12 1458.49 140.69C1453.56 139.457 1448.62 138.187 1443.67 136.88C1425.6 132.13 1428.01 109.33 1445.5 105.73C1459.83 102.77 1473.52 108.37 1476.69 123.93C1476.8 124.477 1476.58 124.75 1476.02 124.75H1465.99C1465.55 124.75 1465.26 124.543 1465.12 124.13C1462.33 115.997 1456.96 112.783 1449 114.49C1439.79 116.46 1441.33 127.11 1449.75 129.25C1456.77 131.04 1467.82 132.71 1473.04 137.83C1478.51 143.21 1478.78 152.63 1474.02 158.38C1467.81 165.89 1455.85 166.59 1446.75 164C1438.02 161.513 1432.69 155.74 1430.74 146.68C1430.61 146.06 1430.86 145.75 1431.49 145.75H1442.2C1442.49 145.75 1442.66 145.893 1442.72 146.18C1443.7 151.053 1446.55 154.237 1451.26 155.73Z"
        fill="#298CCE" />
    <path
        d="M1395.07 150.72L1411.21 105.95C1411.23 105.891 1411.27 105.841 1411.32 105.805C1411.38 105.769 1411.44 105.75 1411.5 105.75H1424.12C1424.17 105.75 1424.22 105.762 1424.26 105.785C1424.31 105.809 1424.35 105.843 1424.38 105.884C1424.4 105.925 1424.42 105.973 1424.43 106.023C1424.43 106.072 1424.43 106.123 1424.41 106.17L1402.25 164.3C1402.23 164.359 1402.19 164.409 1402.14 164.445C1402.08 164.481 1402.02 164.5 1401.96 164.5H1387.41C1387.35 164.5 1387.29 164.481 1387.23 164.445C1387.18 164.409 1387.14 164.359 1387.12 164.3L1364.97 106.18C1364.95 106.133 1364.95 106.082 1364.95 106.033C1364.96 105.983 1364.98 105.935 1365 105.894C1365.03 105.853 1365.07 105.819 1365.12 105.795C1365.16 105.772 1365.21 105.76 1365.26 105.76L1377.89 105.75C1377.95 105.75 1378.01 105.769 1378.07 105.805C1378.12 105.841 1378.16 105.891 1378.18 105.95L1394.49 150.72C1394.51 150.779 1394.55 150.83 1394.6 150.865C1394.66 150.901 1394.72 150.92 1394.78 150.92C1394.84 150.92 1394.9 150.901 1394.96 150.865C1395.01 150.83 1395.05 150.779 1395.07 150.72Z"
        fill="#298CCE" />
    <path
        d="M1164.96 199.309C1168.5 199.377 1171.42 196.84 1171.48 193.643C1171.54 190.446 1168.72 187.799 1165.18 187.731C1161.64 187.663 1158.72 190.2 1158.66 193.397C1158.6 196.594 1161.42 199.241 1164.96 199.309Z"
        fill="#298CCE" />
    <path
        d="M1241.91 199.28C1245.46 199.255 1248.32 196.643 1248.3 193.445C1248.28 190.247 1245.38 187.675 1241.83 187.7C1238.28 187.725 1235.42 190.337 1235.44 193.535C1235.46 196.733 1238.36 199.305 1241.91 199.28Z"
        fill="#298CCE" />
    <path
        d="M629.5 216V253.5C629.5 253.633 629.447 253.76 629.354 253.854C629.26 253.947 629.133 254 629 254H620C619.867 254 619.74 253.947 619.646 253.854C619.553 253.76 619.5 253.633 619.5 253.5V216C619.5 215.667 619.333 215.5 619 215.5H613.75C613.25 215.5 613 215.25 613 214.75V207.63C613 207.21 613.21 207 613.63 207H618.98C619.32 207 619.487 206.83 619.48 206.49C619.4 193.56 627.02 188.04 639.19 188.84C639.563 188.867 639.75 189.067 639.75 189.44V196.98C639.75 197.36 639.56 197.54 639.18 197.52C633.05 197.23 629.11 199.98 629.53 206.54C629.55 206.847 629.713 207 630.02 207H639.25C639.583 207 639.75 207.167 639.75 207.5V214.88C639.75 215.293 639.54 215.5 639.12 215.5H630C629.667 215.5 629.5 215.667 629.5 216Z"
        fill="#298CCE" />
    <path
        d="M494.55 216.33C498.62 208.49 505.87 205.53 514.55 206.76C535.85 209.78 538.95 243.23 520.83 252.44C511.59 257.15 499.53 254.43 494.6 244.75C494.582 244.714 494.552 244.686 494.515 244.669C494.479 244.652 494.438 244.648 494.399 244.657C494.36 244.666 494.325 244.688 494.3 244.72C494.274 244.751 494.261 244.79 494.26 244.83L494.25 253.5C494.25 253.833 494.083 254 493.75 254H485C484.5 254 484.25 253.75 484.25 253.25V191.5C484.25 191.367 484.303 191.24 484.396 191.146C484.49 191.053 484.617 191 484.75 191H493.75C494.083 191 494.25 191.167 494.25 191.5V216.26C494.252 216.295 494.264 216.328 494.287 216.355C494.309 216.382 494.34 216.401 494.373 216.409C494.407 216.417 494.443 216.413 494.475 216.399C494.507 216.385 494.533 216.361 494.55 216.33ZM508.357 245.96C510.234 245.957 512.091 245.553 513.823 244.773C515.556 243.992 517.129 242.85 518.454 241.411C519.778 239.972 520.828 238.265 521.543 236.387C522.257 234.509 522.624 232.497 522.62 230.465C522.616 228.434 522.243 226.423 521.522 224.547C520.8 222.671 519.745 220.968 518.415 219.533C517.086 218.099 515.509 216.962 513.774 216.188C512.039 215.414 510.18 215.017 508.303 215.02C506.426 215.023 504.569 215.427 502.837 216.207C501.104 216.988 499.531 218.13 498.206 219.569C496.882 221.007 495.832 222.715 495.117 224.593C494.403 226.471 494.036 228.483 494.04 230.515C494.044 232.546 494.417 234.557 495.138 236.433C495.859 238.309 496.915 240.012 498.245 241.447C499.574 242.881 501.151 244.018 502.886 244.792C504.621 245.566 506.48 245.963 508.357 245.96Z"
        fill="#298CCE" />
    <path
        d="M550.99 191H542.01C541.728 191 541.5 191.228 541.5 191.51V253.49C541.5 253.772 541.728 254 542.01 254H550.99C551.272 254 551.5 253.772 551.5 253.49V191.51C551.5 191.228 551.272 191 550.99 191Z"
        fill="#298CCE" />
    <path
        d="M801.9 191H793.1C792.769 191 792.5 191.269 792.5 191.6V253.4C792.5 253.731 792.769 254 793.1 254H801.9C802.231 254 802.5 253.731 802.5 253.4V191.6C802.5 191.269 802.231 191 801.9 191Z"
        fill="#298CCE" />
    <path
        d="M1083.76 229.99L1099 253.52C1099.03 253.566 1099.05 253.62 1099.05 253.676C1099.05 253.731 1099.04 253.786 1099.01 253.835C1098.98 253.884 1098.94 253.925 1098.89 253.954C1098.84 253.983 1098.79 253.999 1098.73 254H1088.56C1088.21 254 1087.95 253.853 1087.76 253.56L1073.31 230.45C1073.12 230.15 1072.86 230 1072.51 230H1067.25C1066.75 230 1066.5 230.25 1066.5 230.75V253.37C1066.5 253.79 1066.29 254 1065.87 254H1057.13C1056.71 254 1056.5 253.79 1056.5 253.37V194.07C1056.5 193.985 1056.53 193.904 1056.59 193.844C1056.65 193.784 1056.74 193.75 1056.82 193.75C1065.22 193.74 1074.04 193.26 1082.38 194.21C1103.56 196.62 1104.86 225.98 1083.98 229.49C1083.93 229.5 1083.87 229.523 1083.83 229.557C1083.79 229.591 1083.75 229.635 1083.73 229.684C1083.71 229.734 1083.7 229.788 1083.71 229.841C1083.71 229.895 1083.73 229.946 1083.76 229.99ZM1066.5 202.7V222.76C1066.5 222.813 1066.52 222.864 1066.56 222.901C1066.6 222.939 1066.65 222.96 1066.7 222.96H1078.69C1081.3 222.96 1083.8 222.013 1085.64 220.327C1087.48 218.641 1088.52 216.354 1088.52 213.97V211.49C1088.52 210.309 1088.27 209.14 1087.77 208.05C1087.28 206.959 1086.55 205.968 1085.64 205.133C1084.73 204.298 1083.64 203.636 1082.45 203.184C1081.26 202.733 1079.98 202.5 1078.69 202.5H1066.7C1066.65 202.5 1066.6 202.521 1066.56 202.559C1066.52 202.596 1066.5 202.647 1066.5 202.7Z"
        fill="#298CCE" />
    <path
        d="M437.02 241.33L432.65 253.67C432.615 253.767 432.551 253.85 432.467 253.909C432.383 253.968 432.283 254 432.18 254H422.57C422.488 254.001 422.408 253.981 422.336 253.944C422.264 253.906 422.201 253.851 422.155 253.784C422.109 253.717 422.08 253.64 422.07 253.559C422.06 253.478 422.071 253.396 422.1 253.32L443.9 195.07C443.937 194.975 444.001 194.894 444.085 194.837C444.169 194.78 444.268 194.749 444.37 194.75H454.99C455.093 194.75 455.193 194.782 455.277 194.841C455.361 194.9 455.425 194.983 455.46 195.08L477.18 253.32C477.207 253.396 477.216 253.476 477.205 253.556C477.195 253.636 477.165 253.711 477.119 253.777C477.073 253.843 477.012 253.897 476.941 253.934C476.869 253.971 476.79 253.99 476.71 253.99L467.08 254C466.977 254 466.877 253.968 466.793 253.909C466.709 253.85 466.645 253.767 466.61 253.67L462.29 241.33C462.255 241.233 462.191 241.15 462.107 241.091C462.023 241.032 461.923 241 461.82 241H437.49C437.387 241 437.287 241.032 437.203 241.091C437.119 241.15 437.055 241.233 437.02 241.33ZM440.1 232.85C440.084 232.895 440.079 232.943 440.086 232.991C440.092 233.038 440.11 233.083 440.137 233.122C440.164 233.161 440.201 233.193 440.243 233.215C440.285 233.238 440.332 233.25 440.38 233.25H458.9C458.948 233.25 458.995 233.238 459.037 233.215C459.079 233.193 459.116 233.161 459.143 233.122C459.17 233.083 459.188 233.038 459.194 232.991C459.201 232.943 459.196 232.895 459.18 232.85L449.92 206.72C449.898 206.663 449.86 206.615 449.81 206.58C449.76 206.546 449.701 206.528 449.64 206.528C449.579 206.528 449.52 206.546 449.47 206.58C449.42 206.615 449.382 206.663 449.36 206.72L440.1 232.85Z"
        fill="#298CCE" />
    <path
        d="M659.76 216.18C659.727 224.353 659.74 232.52 659.8 240.68C659.84 245.98 666.85 245.43 670.44 245.6C670.813 245.62 671 245.817 671 246.19V253.21C671 253.557 670.827 253.757 670.48 253.81C661.59 255.04 650.35 253.17 649.86 241.81C649.687 237.737 649.667 229.15 649.8 216.05C649.8 215.683 649.617 215.5 649.25 215.5H643.75C643.25 215.5 643 215.25 643 214.75V207.63C643 207.21 643.207 207 643.62 207H649C649.5 207 649.75 206.75 649.75 206.25V196C649.75 195.667 649.917 195.5 650.25 195.5H659.25C659.383 195.5 659.51 195.553 659.604 195.646C659.697 195.74 659.75 195.867 659.75 196V206.5C659.75 206.833 659.917 207 660.25 207H670.5C670.833 207 671 207.167 671 207.5V215C671 215.333 670.833 215.5 670.5 215.5H660.44C659.987 215.5 659.76 215.727 659.76 216.18Z"
        fill="#298CCE" />
    <path
        d="M747.6 215.59C754.36 202.76 774.28 203.2 779.69 216.25C780.83 218.99 781.43 223.693 781.49 230.36C781.557 238.067 781.547 245.777 781.46 253.49C781.453 253.83 781.283 254 780.95 254H772.05C771.703 254 771.53 253.83 771.53 253.49C771.47 244.303 771.463 235.143 771.51 226.01C771.58 212.69 752.37 210.63 748.15 222.41C747.43 224.417 747.057 228.237 747.03 233.87C747.003 240.397 746.993 246.927 747 253.46C747 253.82 746.82 254 746.46 254H738C737.5 254 737.25 253.75 737.25 253.25V207.75C737.25 207.25 737.5 207 738 207H746.37C746.79 207 747 207.207 747 207.62L747.01 215.45C747.01 216.29 747.207 216.337 747.6 215.59Z"
        fill="#298CCE" />
    <path
        d="M991.52 215.54C1001.52 198.91 1025.31 205.34 1025.59 225.21C1025.76 237.263 1025.81 246.697 1025.73 253.51C1025.72 253.837 1025.56 254 1025.23 254H1016.29C1015.94 254 1015.77 253.827 1015.77 253.48C1015.73 244.547 1015.72 235.643 1015.74 226.77C1015.76 213.43 997.89 210.1 992.68 221.49C991.753 223.51 991.287 226.79 991.28 231.33C991.26 238.71 991.247 246.09 991.24 253.47C991.24 253.823 991.063 254 990.71 254H982C981.5 254 981.25 253.75 981.25 253.25V207.75C981.25 207.25 981.5 207 982 207H990.62C991 207 991.193 207.19 991.2 207.57L991.35 215.5C991.357 215.7 991.413 215.713 991.52 215.54Z"
        fill="#298CCE" />
    <path
        d="M1191.91 215.16C1199.31 202.83 1218.76 203.02 1224.14 216.87C1225.17 219.51 1225.7 223.787 1225.73 229.7C1225.78 237.64 1225.78 245.577 1225.73 253.51C1225.73 253.837 1225.56 254 1225.23 254H1216.5C1216.15 254 1215.98 253.823 1215.98 253.47C1216.01 244.81 1216.03 236.157 1216.03 227.51C1216.02 212.99 1196.86 209.84 1192.4 222.24C1191.84 223.793 1191.55 226.38 1191.53 230C1191.49 237.82 1191.48 245.647 1191.51 253.48C1191.51 253.827 1191.34 254 1190.99 254H1182C1181.87 254 1181.74 253.947 1181.65 253.854C1181.55 253.76 1181.5 253.633 1181.5 253.5V207.5C1181.5 207.167 1181.67 207 1182 207H1191.01C1191.36 207 1191.53 207.173 1191.53 207.52L1191.45 215.03C1191.44 215.643 1191.6 215.687 1191.91 215.16Z"
        fill="#298CCE" />
    <path
        d="M1380.66 215.52C1384.61 207.59 1393.7 204.79 1401.72 206.94C1410.71 209.35 1414.39 216.75 1414.6 225.7C1414.82 234.967 1414.85 244.24 1414.68 253.52C1414.67 253.84 1414.51 254 1414.19 254H1405.29C1404.94 254 1404.76 253.823 1404.76 253.47C1404.75 246.05 1404.74 238.647 1404.73 231.26C1404.72 226.947 1404.46 223.983 1403.94 222.37C1400.55 211.84 1385.11 212.28 1381.28 222.25C1380.65 223.877 1380.32 226.477 1380.29 230.05C1380.22 237.697 1380.22 245.493 1380.27 253.44C1380.27 253.513 1380.26 253.586 1380.23 253.654C1380.2 253.721 1380.16 253.783 1380.11 253.835C1380.06 253.888 1380 253.929 1379.93 253.957C1379.87 253.985 1379.79 254 1379.72 254H1371C1370.5 254 1370.25 253.75 1370.25 253.25V207.75C1370.25 207.25 1370.5 207 1371 207H1379.75C1380.08 207 1380.25 207.167 1380.25 207.5L1380.26 215.43C1380.26 215.478 1380.28 215.524 1380.31 215.562C1380.34 215.599 1380.38 215.625 1380.42 215.635C1380.47 215.646 1380.52 215.64 1380.56 215.619C1380.61 215.598 1380.64 215.563 1380.66 215.52Z"
        fill="#298CCE" />
    <path
        d="M715.75 215.74V207.5C715.75 207.167 715.917 207 716.25 207H725.25C725.583 207 725.75 207.167 725.75 207.5V253.59C725.75 253.696 725.708 253.798 725.633 253.873C725.558 253.948 725.456 253.99 725.35 253.99L716.25 254C715.917 254 715.75 253.833 715.75 253.5V245.75C715.75 245.017 715.553 244.96 715.16 245.58C710.913 252.273 704.697 255.227 696.51 254.44C667.95 251.71 672.12 200.18 704.03 207.01C708.79 208.03 712.517 210.987 715.21 215.88C715.57 216.533 715.75 216.487 715.75 215.74ZM701.69 245.96C705.467 245.96 709.089 244.329 711.759 241.426C714.43 238.523 715.93 234.586 715.93 230.48C715.93 226.374 714.43 222.437 711.759 219.534C709.089 216.631 705.467 215 701.69 215C699.82 215 697.968 215.4 696.241 216.178C694.513 216.956 692.943 218.097 691.621 219.534C690.298 220.971 689.25 222.678 688.534 224.556C687.818 226.434 687.45 228.447 687.45 230.48C687.45 234.586 688.95 238.523 691.621 241.426C694.291 244.329 697.913 245.96 701.69 245.96Z"
        fill="#298CCE" />
    <path
        d="M849.38 244.85C845.79 252.22 838.8 255.11 830.73 254.45C804.43 252.3 804.78 206.37 833.09 206.55C840.52 206.6 846.18 209.75 849.5 216.3C849.527 216.351 849.57 216.392 849.623 216.416C849.676 216.44 849.735 216.445 849.792 216.431C849.848 216.418 849.898 216.385 849.934 216.34C849.97 216.294 849.99 216.238 849.99 216.18L850 207.5C850 207.367 850.053 207.24 850.146 207.146C850.24 207.053 850.367 207 850.5 207H859.25C859.583 207 859.75 207.167 859.75 207.5V253.59C859.75 253.696 859.708 253.798 859.633 253.873C859.558 253.948 859.456 253.99 859.35 253.99L850.5 254C850.167 254 850 253.833 850 253.5V244.99C849.996 244.918 849.969 244.849 849.923 244.794C849.876 244.739 849.813 244.701 849.743 244.685C849.673 244.669 849.599 244.677 849.534 244.706C849.468 244.736 849.414 244.787 849.38 244.85ZM835.76 245.94C837.633 245.94 839.487 245.54 841.217 244.763C842.947 243.986 844.519 242.847 845.843 241.412C847.167 239.976 848.218 238.272 848.935 236.396C849.651 234.521 850.02 232.51 850.02 230.48C850.02 228.45 849.651 226.439 848.935 224.564C848.218 222.688 847.167 220.984 845.843 219.548C844.519 218.113 842.947 216.974 841.217 216.197C839.487 215.42 837.633 215.02 835.76 215.02C831.978 215.02 828.351 216.649 825.677 219.548C823.002 222.447 821.5 226.38 821.5 230.48C821.5 234.58 823.002 238.513 825.677 241.412C828.351 244.311 831.978 245.94 835.76 245.94Z"
        fill="#298CCE" />
    <path
        d="M906.81 244.79C902.517 252.477 895.8 255.643 886.66 254.29C859.26 250.22 864.4 200.74 894.44 206.83C899.66 207.883 903.817 211.047 906.91 216.32C906.929 216.357 906.959 216.386 906.997 216.402C907.034 216.419 907.077 216.422 907.116 216.412C907.156 216.401 907.191 216.378 907.215 216.345C907.239 216.311 907.252 216.271 907.25 216.23V207.5C907.25 207.367 907.303 207.24 907.396 207.146C907.49 207.053 907.617 207 907.75 207H916.73C917.063 207 917.23 207.167 917.23 207.5C917.263 219.973 917.267 232.443 917.24 244.91C917.213 254.243 916.67 260.407 915.61 263.4C911.64 274.63 900.52 278.4 888.62 276.26C879.48 274.627 873.663 269.307 871.17 260.3C871.144 260.206 871.14 260.107 871.158 260.012C871.176 259.916 871.216 259.826 871.276 259.748C871.335 259.67 871.411 259.608 871.499 259.565C871.586 259.522 871.682 259.499 871.78 259.5H880.52C880.867 259.5 881.097 259.667 881.21 260C885.64 272.76 906.47 270.32 907.07 256.07C907.27 251.29 907.283 247.553 907.11 244.86C907.083 244.507 906.983 244.483 906.81 244.79ZM893.04 245.95C896.819 245.95 900.444 244.32 903.116 241.419C905.789 238.518 907.29 234.583 907.29 230.48C907.29 226.377 905.789 222.442 903.116 219.541C900.444 216.64 896.819 215.01 893.04 215.01C889.261 215.01 885.636 216.64 882.964 219.541C880.291 222.442 878.79 226.377 878.79 230.48C878.79 234.583 880.291 238.518 882.964 241.419C885.636 244.32 889.261 245.95 893.04 245.95Z"
        fill="#298CCE" />
    <path
        d="M936.05 232.95C935.79 248.3 957.38 251.63 961.07 238.04C961.17 237.68 961.403 237.5 961.77 237.5L971.42 237.51C971.474 237.51 971.527 237.522 971.576 237.546C971.624 237.569 971.667 237.604 971.701 237.646C971.734 237.688 971.758 237.737 971.77 237.79C971.782 237.843 971.782 237.897 971.77 237.95C968.28 252.95 951.59 258.1 938.74 252.48C925.7 246.77 922.82 227.86 929.85 216.51C935.66 207.11 948.27 204.23 958.48 207.99C968.53 211.7 973.37 221.33 971.95 231.9C971.897 232.3 971.667 232.5 971.26 232.5H936.51C936.39 232.5 936.274 232.547 936.188 232.631C936.102 232.715 936.053 232.83 936.05 232.95ZM936.72 228.09L961.72 227.95C961.883 227.947 962.038 227.881 962.152 227.765C962.266 227.649 962.33 227.493 962.33 227.33V226.83C962.321 225.199 961.99 223.586 961.357 222.082C960.724 220.579 959.801 219.215 958.64 218.068C957.479 216.921 956.104 216.014 954.592 215.399C953.08 214.783 951.462 214.471 949.83 214.48H948.45C946.818 214.489 945.203 214.82 943.699 215.452C942.194 216.085 940.829 217.007 939.681 218.167C938.533 219.327 937.626 220.701 937.009 222.212C936.393 223.722 936.081 225.339 936.09 226.97V227.47C936.09 227.552 936.106 227.634 936.138 227.71C936.17 227.785 936.216 227.854 936.275 227.912C936.334 227.97 936.403 228.015 936.48 228.046C936.556 228.076 936.638 228.091 936.72 228.09Z"
        fill="#298CCE" />
    <path
        d="M1114.76 233.18C1114.95 248.21 1135.92 251.71 1139.85 237.99C1139.95 237.663 1140.17 237.5 1140.5 237.5H1150C1150.08 237.501 1150.17 237.52 1150.24 237.558C1150.32 237.595 1150.38 237.649 1150.44 237.715C1150.49 237.781 1150.52 237.858 1150.54 237.941C1150.56 238.023 1150.56 238.108 1150.54 238.19C1146.91 252.76 1131.03 257.89 1118.24 252.74C1105.35 247.56 1101.91 230.27 1107.27 219C1117.75 196.97 1154.06 204.78 1150.71 231.9C1150.66 232.3 1150.44 232.5 1150.03 232.5H1115.44C1114.99 232.5 1114.76 232.727 1114.76 233.18ZM1115.43 228.11L1140.57 227.93C1140.71 227.927 1140.85 227.868 1140.95 227.765C1141.05 227.663 1141.11 227.524 1141.11 227.38V226.94C1141.1 225.294 1140.77 223.666 1140.14 222.149C1139.52 220.632 1138.6 219.257 1137.46 218.1C1136.31 216.944 1134.95 216.03 1133.45 215.411C1131.96 214.791 1130.36 214.478 1128.75 214.49L1127.05 214.51C1123.8 214.533 1120.69 215.875 1118.4 218.239C1116.12 220.604 1114.85 223.798 1114.87 227.12V227.56C1114.87 227.633 1114.88 227.705 1114.91 227.773C1114.94 227.84 1114.98 227.901 1115.03 227.952C1115.09 228.004 1115.15 228.044 1115.22 228.071C1115.28 228.098 1115.36 228.111 1115.43 228.11Z"
        fill="#298CCE" />
    <path
        d="M1293.81 244.81C1287.48 256.43 1271.33 257.93 1262.35 248.71C1254.89 241.05 1253.97 226.18 1259.12 216.91C1266.36 203.87 1286.7 202.03 1293.73 216.36C1293.75 216.42 1293.8 216.469 1293.86 216.499C1293.91 216.529 1293.98 216.537 1294.04 216.523C1294.1 216.508 1294.16 216.472 1294.2 216.42C1294.24 216.368 1294.25 216.304 1294.25 216.24V207.5C1294.25 207.367 1294.3 207.24 1294.4 207.146C1294.49 207.053 1294.62 207 1294.75 207H1303.73C1304.06 207 1304.23 207.167 1304.23 207.5C1304.28 223.333 1304.27 239.16 1304.21 254.98C1304.09 282.38 1263.82 284.78 1258.24 259.93C1258.23 259.88 1258.23 259.828 1258.24 259.778C1258.25 259.728 1258.27 259.681 1258.31 259.641C1258.34 259.6 1258.38 259.568 1258.43 259.545C1258.48 259.522 1258.53 259.51 1258.58 259.51L1267.23 259.5C1267.57 259.5 1267.82 259.65 1267.97 259.95C1274.08 272.23 1292.89 270.82 1294.1 256.33C1294.42 252.55 1294.41 248.727 1294.07 244.86C1294.04 244.56 1293.96 244.543 1293.81 244.81ZM1277.98 215.29C1261.68 217.79 1262.11 244.12 1278.18 245.66C1300.29 247.79 1298.7 212.11 1277.98 215.29Z"
        fill="#298CCE" />
    <path
        d="M1461.03 244.92C1458.04 250.787 1453.59 253.957 1447.68 254.43C1435.54 255.397 1427.8 250.347 1424.45 239.28C1421.66 230.05 1423.51 218.19 1430.67 211.57C1439.63 203.27 1455.46 204.94 1461.29 216.35C1461.32 216.41 1461.37 216.458 1461.43 216.485C1461.49 216.513 1461.56 216.519 1461.62 216.503C1461.69 216.487 1461.74 216.449 1461.78 216.395C1461.82 216.342 1461.84 216.276 1461.84 216.21L1461.71 207.52C1461.7 207.173 1461.88 207 1462.23 207H1470.96C1471.31 207 1471.49 207.18 1471.49 207.54C1471.5 222.14 1471.51 236.73 1471.52 251.31C1471.52 256.47 1471.06 260.37 1470.14 263.01C1463.17 282.98 1430.64 281.53 1425.71 260.2C1425.6 259.733 1425.78 259.5 1426.26 259.5H1434.7C1435.01 259.5 1435.23 259.64 1435.36 259.92C1437.82 264.987 1441.58 267.737 1446.63 268.17C1461.73 269.45 1462.52 255.91 1461.67 245.04C1461.6 244.253 1461.39 244.213 1461.03 244.92ZM1447.45 245.95C1449.32 245.953 1451.18 245.556 1452.91 244.782C1454.64 244.008 1456.21 242.871 1457.54 241.437C1458.86 240.002 1459.92 238.299 1460.63 236.423C1461.35 234.547 1461.73 232.536 1461.73 230.505C1461.73 228.473 1461.37 226.461 1460.66 224.583C1459.94 222.705 1458.9 220.997 1457.58 219.559C1456.25 218.12 1454.69 216.978 1452.96 216.197C1451.23 215.417 1449.38 215.013 1447.51 215.01C1445.64 215.007 1443.78 215.404 1442.05 216.178C1440.32 216.952 1438.75 218.089 1437.42 219.523C1436.1 220.958 1435.04 222.661 1434.33 224.537C1433.61 226.413 1433.23 228.424 1433.23 230.455C1433.23 232.487 1433.59 234.499 1434.3 236.377C1435.02 238.255 1436.06 239.963 1437.38 241.401C1438.71 242.84 1440.27 243.982 1442 244.763C1443.73 245.543 1445.58 245.947 1447.45 245.95Z"
        fill="#298CCE" />
    <path
        d="M595.87 245.5C592.16 253.15 583.38 255.98 575.59 254.24C564.69 251.79 561.8 242.73 561.77 232.75C561.743 224.337 561.74 215.923 561.76 207.51C561.76 207.17 561.93 207 562.27 207H571.24C571.587 207 571.76 207.173 571.76 207.52C571.733 221.36 571.743 230.267 571.79 234.24C571.95 247.93 589.69 250.92 594.89 239.25C595.79 237.23 596.24 234.283 596.24 230.41C596.253 222.77 596.257 215.137 596.25 207.51C596.25 207.375 596.303 207.245 596.396 207.149C596.49 207.054 596.617 207 596.75 207H605.75C606.083 207 606.25 207.167 606.25 207.5V253.59C606.25 253.696 606.208 253.798 606.133 253.873C606.058 253.948 605.956 253.99 605.85 253.99L596.75 254C596.417 254 596.25 253.833 596.25 253.5L596.24 245.58C596.241 245.537 596.227 245.495 596.201 245.462C596.174 245.429 596.136 245.406 596.094 245.396C596.051 245.387 596.006 245.392 595.965 245.411C595.925 245.43 595.891 245.461 595.87 245.5Z"
        fill="#298CCE" />
    <path
        d="M1169.69 207H1160.31C1160.14 207 1160 207.139 1160 207.31V253.69C1160 253.861 1160.14 254 1160.31 254H1169.69C1169.86 254 1170 253.861 1170 253.69V207.31C1170 207.139 1169.86 207 1169.69 207Z"
        fill="#298CCE" />
    <path
        d="M1246.31 207H1237.43C1237.19 207 1237 207.193 1237 207.43V253.57C1237 253.807 1237.19 254 1237.43 254H1246.31C1246.55 254 1246.74 253.807 1246.74 253.57V207.43C1246.74 207.193 1246.55 207 1246.31 207Z"
        fill="#298CCE" />
    <path
        d="M1348.46 245.18C1342.13 259.18 1320.95 257.29 1315.98 243.74C1315.01 241.113 1314.52 237.177 1314.5 231.93C1314.47 223.797 1314.47 215.66 1314.52 207.52C1314.53 207.173 1314.7 207 1315.04 207H1323.73C1324.06 207 1324.23 207.167 1324.23 207.5C1324.26 215.587 1324.27 223.67 1324.26 231.75C1324.25 239.1 1326.6 245.6 1335.05 246.25C1345.45 247.05 1348.74 239.64 1348.9 230.61C1349.04 222.923 1349.06 215.233 1348.96 207.54C1348.96 207.18 1349.14 207 1349.5 207H1358.5C1358.83 207 1359 207.167 1359 207.5V253.38C1359 253.793 1358.79 254 1358.37 254H1349.64C1349.23 254 1349.03 253.797 1349.03 253.39L1348.95 245.28C1348.94 244.513 1348.78 244.48 1348.46 245.18Z"
        fill="#298CCE" />
    <path
        d="M583.101 28.8188C591.937 28.7571 599.055 22.2558 599 14.2979C598.944 6.33993 591.736 -0.0612568 582.899 0.000442301C574.063 0.0621414 566.945 6.56336 567 14.5213C567.056 22.4793 574.264 28.8805 583.101 28.8188Z"
        fill="#298CCE" />
    <path
        d="M310.549 87.4983C322.903 93.5716 334.609 100.738 345.669 108.998C351.409 113.288 355.889 116.678 357.199 122.858C358.739 130.108 349.8 135.948 343.93 137.198C313.3 143.688 281.91 145.868 250.65 146.928C250.553 146.933 250.461 146.97 250.387 147.032C250.314 147.095 250.263 147.18 250.242 147.274C250.222 147.369 250.233 147.467 250.274 147.555C250.315 147.642 250.384 147.714 250.47 147.758C254.14 149.658 270.2 161.478 263.66 166.378C244.86 180.458 218.98 182.598 196.34 184.018C196.231 184.023 196.128 184.064 196.047 184.136C195.966 184.207 195.912 184.305 195.893 184.412C195.875 184.52 195.893 184.631 195.945 184.729C195.997 184.826 196.079 184.903 196.18 184.948C202.46 187.608 204.34 193.708 201.26 199.558C197.78 206.178 186.69 211.058 180.01 213.308C179.929 213.335 179.856 213.382 179.798 213.444C179.739 213.505 179.697 213.58 179.674 213.662C179.652 213.744 179.649 213.83 179.668 213.913C179.686 213.996 179.724 214.074 179.78 214.138C194.37 231.158 170.94 252.998 154.5 242.848C151.73 241.138 153.98 236.048 158.62 237.998C171.72 243.498 186.82 225.038 172.53 216.088C172.25 215.908 171.95 215.862 171.63 215.948C165.056 217.735 158.36 218.642 151.54 218.668C151.2 218.668 150.903 218.558 150.65 218.338C148.403 216.425 148.436 214.455 150.75 212.428C156.796 207.122 163.843 205.995 171.89 209.048C172.19 209.168 172.5 209.182 172.82 209.088C180.013 207.082 186.696 204.008 192.87 199.868C196.16 197.658 198.37 193.048 193.85 190.708C189.72 188.568 183.709 185.168 178.969 185.508C151.596 187.522 125.5 187.905 100.68 186.658C97.2695 186.488 97.5295 181.628 100.78 180.388C126.8 170.542 153.08 169.778 179.62 178.098C181.38 178.645 183.12 178.865 184.84 178.758C191.653 178.312 198.453 177.728 205.24 177.008C223.92 175.018 242.95 173.778 257.57 162.858C257.87 162.638 257.91 162.378 257.69 162.078C252.22 154.518 239.829 147.508 230.449 147.908C166.583 150.568 102.723 153.298 38.8695 156.098C36.7628 156.192 34.6595 156.185 32.5595 156.078C32.2128 156.065 31.9295 155.928 31.7095 155.668C29.6795 153.288 30.8495 150.728 33.6495 149.718C99.3628 126.072 166.129 123.185 233.949 141.058C236.569 141.748 239.74 141.208 241.93 141.128C273.65 140.028 303.77 138.258 334.41 132.738C342.53 131.278 360.27 127.518 344.96 116.088C330.46 105.268 314.963 96.1416 298.47 88.7083C298.17 88.5683 297.853 88.5149 297.52 88.5483C199.689 98.6883 99.4195 93.7883 2.8595 86.6983C-0.150497 86.4783 -1.1805 82.3083 1.7195 80.7583C36.8295 62.0083 75.2895 55.3783 115.12 54.2983C176.49 52.6183 239.47 57.5683 296.81 81.1783C298.123 81.7183 299.476 81.9116 300.87 81.7583C338.836 77.5583 376.236 70.3216 413.07 60.0483C418.09 58.6483 419.43 64.6783 415.41 65.8183C381.056 75.5183 346.133 82.5649 310.639 86.9583C310.58 86.9685 310.526 86.9969 310.483 87.0396C310.441 87.0822 310.413 87.137 310.403 87.1963C310.393 87.2556 310.402 87.3166 310.428 87.3707C310.454 87.4248 310.497 87.4693 310.549 87.4983ZM16.9195 81.5683C38.8128 82.9349 60.7062 84.2083 82.5995 85.3883C147.41 88.8683 211.94 89.2183 276.87 84.2783C279.863 84.0516 282.303 83.8116 284.19 83.5583C284.916 83.4649 284.939 83.2849 284.259 83.0183C263.239 74.7783 240.45 69.6083 218.15 66.2883C184.343 61.2616 150.35 59.2916 116.17 60.3783C81.5295 61.4883 47.1895 66.8683 15.4595 80.7683C15.3328 80.8216 15.2495 80.9149 15.2095 81.0483C15.1828 81.1283 15.1528 81.2083 15.1195 81.2883C15.0395 81.5083 15.1128 81.6083 15.3395 81.5883C15.8728 81.5416 16.3995 81.5349 16.9195 81.5683ZM208.469 141.458C158.209 132.038 106.25 134.368 57.1795 148.678C56.3795 148.905 56.3928 149.002 57.2195 148.968L209.91 142.478C209.95 142.475 209.989 142.459 210.022 142.434C210.054 142.408 210.078 142.374 210.09 142.336C210.102 142.297 210.101 142.257 210.089 142.22C210.076 142.183 210.052 142.151 210.02 142.128C209.586 141.795 209.069 141.572 208.469 141.458ZM122.74 181.378L160.65 180.658C160.677 180.657 160.704 180.65 160.729 180.639C160.754 180.627 160.777 180.61 160.795 180.59C160.814 180.569 160.828 180.545 160.837 180.519C160.847 180.493 160.851 180.466 160.85 180.438V180.348C160.826 179.814 158.812 179.34 155.248 179.031C151.685 178.722 146.863 178.602 141.84 178.698H141.46C138.963 178.746 136.491 178.846 134.187 178.992C131.882 179.138 129.791 179.328 128.031 179.55C126.272 179.772 124.879 180.022 123.933 180.286C122.987 180.55 122.507 180.823 122.52 181.088V181.178C122.521 181.206 122.528 181.233 122.539 181.258C122.551 181.283 122.568 181.305 122.588 181.324C122.608 181.342 122.632 181.357 122.658 181.366C122.684 181.375 122.712 181.38 122.74 181.378Z"
        fill="#298CCE" />
</svg>