<svg width="418" height="192" viewBox="0 0 418 192" fill="none" xmlns="http://www.w3.org/2000/svg">
    <path
        d="M310.549 33.4983C322.903 39.5716 334.609 46.7383 345.669 54.9983C351.409 59.2883 355.889 62.6783 357.199 68.8583C358.739 76.1083 349.8 81.9483 343.93 83.1983C313.3 89.6883 281.91 91.8683 250.65 92.9283C250.553 92.9332 250.461 92.9698 250.387 93.0324C250.314 93.0949 250.263 93.18 250.242 93.2744C250.222 93.3689 250.233 93.4674 250.274 93.5548C250.315 93.6423 250.384 93.7138 250.47 93.7583C254.14 95.6583 270.2 107.478 263.66 112.378C244.86 126.458 218.98 128.598 196.34 130.018C196.231 130.023 196.128 130.064 196.047 130.136C195.966 130.207 195.912 130.305 195.893 130.412C195.875 130.52 195.893 130.631 195.945 130.729C195.997 130.826 196.079 130.903 196.18 130.948C202.46 133.608 204.34 139.708 201.26 145.558C197.78 152.178 186.69 157.058 180.01 159.308C179.929 159.335 179.856 159.382 179.798 159.444C179.739 159.505 179.697 159.58 179.674 159.662C179.652 159.744 179.649 159.83 179.668 159.913C179.686 159.996 179.724 160.074 179.78 160.138C194.37 177.158 170.94 198.998 154.5 188.848C151.73 187.138 153.98 182.048 158.62 183.998C171.72 189.498 186.82 171.038 172.53 162.088C172.25 161.908 171.95 161.862 171.63 161.948C165.056 163.735 158.36 164.642 151.54 164.668C151.2 164.668 150.903 164.558 150.65 164.338C148.403 162.425 148.436 160.455 150.75 158.428C156.796 153.122 163.843 151.995 171.89 155.048C172.19 155.168 172.5 155.182 172.82 155.088C180.013 153.082 186.696 150.008 192.87 145.868C196.16 143.658 198.37 139.048 193.85 136.708C189.72 134.568 183.709 131.168 178.969 131.508C151.596 133.522 125.5 133.905 100.68 132.658C97.2695 132.488 97.5295 127.628 100.78 126.388C126.8 116.542 153.08 115.778 179.62 124.098C181.38 124.645 183.12 124.865 184.84 124.758C191.653 124.312 198.453 123.728 205.24 123.008C223.92 121.018 242.95 119.778 257.57 108.858C257.87 108.638 257.91 108.378 257.69 108.078C252.22 100.518 239.829 93.5083 230.449 93.9083C166.583 96.5683 102.723 99.2983 38.8695 102.098C36.7628 102.192 34.6595 102.185 32.5595 102.078C32.2128 102.065 31.9295 101.928 31.7095 101.668C29.6795 99.2883 30.8495 96.7283 33.6495 95.7183C99.3628 72.0716 166.129 69.1849 233.949 87.0583C236.569 87.7483 239.74 87.2083 241.93 87.1283C273.65 86.0283 303.77 84.2583 334.41 78.7383C342.53 77.2783 360.27 73.5183 344.96 62.0883C330.46 51.2683 314.963 42.1416 298.47 34.7083C298.17 34.5683 297.853 34.5149 297.52 34.5483C199.689 44.6883 99.4195 39.7883 2.8595 32.6983C-0.150497 32.4783 -1.1805 28.3083 1.7195 26.7583C36.8295 8.00826 75.2895 1.37826 115.12 0.29826C176.49 -1.38174 239.47 3.56826 296.81 27.1783C298.123 27.7183 299.476 27.9116 300.87 27.7583C338.836 23.5583 376.236 16.3216 413.07 6.04826C418.09 4.64826 419.43 10.6783 415.41 11.8183C381.056 21.5183 346.133 28.5649 310.639 32.9583C310.58 32.9685 310.526 32.9969 310.483 33.0396C310.441 33.0822 310.413 33.137 310.403 33.1963C310.393 33.2556 310.402 33.3166 310.428 33.3707C310.454 33.4248 310.497 33.4693 310.549 33.4983ZM16.9195 27.5683C38.8128 28.9349 60.7062 30.2083 82.5995 31.3883C147.41 34.8683 211.94 35.2183 276.87 30.2783C279.863 30.0516 282.303 29.8116 284.19 29.5583C284.916 29.4649 284.939 29.2849 284.259 29.0183C263.239 20.7783 240.45 15.6083 218.15 12.2883C184.343 7.26159 150.35 5.2916 116.17 6.37826C81.5295 7.48826 47.1895 12.8683 15.4595 26.7683C15.3328 26.8216 15.2495 26.9149 15.2095 27.0483C15.1828 27.1283 15.1528 27.2083 15.1195 27.2883C15.0395 27.5083 15.1128 27.6083 15.3395 27.5883C15.8728 27.5416 16.3995 27.5349 16.9195 27.5683ZM208.469 87.4583C158.209 78.0383 106.25 80.3683 57.1795 94.6783C56.3795 94.9049 56.3928 95.0016 57.2195 94.9683L209.91 88.4783C209.95 88.4748 209.989 88.4593 210.022 88.4337C210.054 88.4082 210.078 88.374 210.09 88.3357C210.102 88.2974 210.101 88.2569 210.089 88.2198C210.076 88.1826 210.052 88.1507 210.02 88.1283C209.586 87.7949 209.069 87.5716 208.469 87.4583ZM122.74 127.378L160.65 126.658C160.677 126.657 160.704 126.65 160.729 126.639C160.754 126.627 160.777 126.61 160.795 126.59C160.814 126.569 160.828 126.545 160.837 126.519C160.847 126.493 160.851 126.466 160.85 126.438V126.348C160.826 125.814 158.812 125.34 155.248 125.031C151.685 124.722 146.863 124.602 141.84 124.698H141.46C138.963 124.746 136.491 124.846 134.187 124.992C131.882 125.138 129.791 125.328 128.031 125.55C126.272 125.772 124.879 126.022 123.933 126.286C122.987 126.55 122.507 126.823 122.52 127.088V127.178C122.521 127.206 122.528 127.233 122.539 127.258C122.551 127.283 122.568 127.305 122.588 127.324C122.608 127.342 122.632 127.357 122.658 127.366C122.684 127.375 122.712 127.38 122.74 127.378Z"
        fill="#fff" />
</svg>